<?xml version="1.0"?>
<svg xmlns="http://www.w3.org/2000/svg" id="Capa_1" enable-background="new 0 0 512 512" height="512px" viewBox="0 0 512 512" width="512px" class=""><g><g><g><path d="m417.797 191.188h-96.129l55.858-68.603c2.436-2.993 2.934-7.121 1.276-10.607-1.656-3.486-5.172-5.707-9.031-5.707h-50.885v-96.271c0-5.523-4.478-10-10-10h-105.771c-5.523 0-10 4.477-10 10v96.271h-50.885c-3.859 0-7.374 2.221-9.032 5.707-1.657 3.486-1.16 7.614 1.277 10.607l55.858 68.603h-96.13c-17.9 0-32.464 14.579-32.464 32.498v255.815c0 17.92 14.563 32.499 32.464 32.499h116.591c5.523 0 10-4.477 10-10s-4.477-10-10-10h-116.591c-6.872 0-12.464-5.607-12.464-12.499v-.976l139.6-108.601 28.181 23.97c1.868 1.588 4.173 2.383 6.479 2.383s4.611-.794 6.478-2.383l28.181-23.969 139.601 108.601v.976c0 6.892-5.591 12.499-12.464 12.499h-116.589c-5.523 0-10 4.477-10 10s4.478 10 10 10h116.591c17.9 0 32.464-14.579 32.464-32.499v-255.816c0-17.919-14.564-32.498-32.464-32.498zm-214.682-64.917c5.523 0 10-4.477 10-10v-96.271h85.771v96.271c0 5.523 4.478 10 10 10h39.847l-92.733 113.891-92.732-113.891zm-121.376 326.914v-201.999l124.04 105.503zm174.261-80.037-174.261-148.218v-1.244c0-6.892 5.591-12.498 12.464-12.498h112.414l41.628 51.126c1.899 2.333 4.747 3.686 7.754 3.686 3.008 0 5.855-1.353 7.755-3.686l41.628-51.126h112.414c6.873 0 12.464 5.607 12.464 12.498v1.244zm50.22-16.459 124.041-105.503v201.999z" data-original="#000000" class="active-path" fill="#000000"/><g><path d="m256.18 512c-4.357 0-8.294-2.939-9.56-7.1-1.162-3.818.119-8.097 3.216-10.628 3.38-2.761 8.262-2.986 11.893-.582 3.358 2.223 5.06 6.401 4.239 10.339-.955 4.579-5.104 7.971-9.788 7.971z" data-original="#000000" class="active-path" fill="#000000"/></g></g></g></g> </svg>
